<svg xmlns="http://www.w3.org/2000/svg" xmlns:xlink="http://www.w3.org/1999/xlink" width="400" zoomAndPan="magnify" viewBox="0 0 300 149.999998" height="200" preserveAspectRatio="xMidYMid meet" version="1.0"><defs><g/></defs><g fill="#000000" fill-opacity="1"><g transform="translate(98.77532, 134.694909)"><g><path d="M 8.128906 -82.234375 C 10.28125 -84.863281 10.28125 -85.101562 10.039062 -85.820312 C 9.324219 -87.253906 7.890625 -87.015625 7.171875 -85.34375 C 6.214844 -83.429688 6.933594 -80.800781 8.128906 -82.234375 Z M -92.753906 4.542969 C -90.839844 4.78125 -87.492188 4.0625 -85.101562 2.867188 L -83.191406 2.152344 C -82.472656 2.152344 -76.019531 -1.433594 -73.152344 -3.585938 C -63.828125 -10.039062 -61.914062 -11.472656 -60.003906 -13.386719 L -54.980469 -17.691406 C -53.070312 -19.363281 -51.398438 -21.035156 -29.882812 -42.550781 C -28.449219 -43.984375 -23.90625 -45.660156 -19.125 -46.617188 L -14.105469 -47.8125 C -12.910156 -48.050781 -11.472656 -48.289062 -10.996094 -48.289062 C -10.519531 -48.289062 -10.28125 -48.527344 -10.28125 -49.007812 C -10.28125 -49.484375 -10.519531 -49.722656 -10.519531 -49.722656 C -11.714844 -49.722656 -18.40625 -48.527344 -21.035156 -47.8125 L -24.863281 -47.09375 C -25.339844 -47.09375 -7.890625 -65.023438 -3.109375 -69.324219 L 0.238281 -72.671875 L 1.433594 -73.390625 C 2.390625 -74.105469 2.152344 -75.78125 0.957031 -75.78125 C 0.238281 -75.78125 -0.71875 -75.300781 -2.867188 -73.390625 C -6.453125 -70.28125 -9.5625 -67.414062 -10.996094 -65.5 C -14.820312 -60.957031 -28.925781 -46.375 -31.078125 -45.179688 C -31.554688 -44.703125 -35.140625 -43.269531 -36.8125 -42.789062 L -38.488281 -42.074219 L -41.355469 -40.878906 C -46.855469 -38.25 -55.9375 -33.707031 -60.71875 -30.839844 L -63.589844 -29.164062 L -67.890625 -26.773438 L -70.761719 -24.621094 L -74.347656 -21.992188 C -76.496094 -20.082031 -77.929688 -19.125 -79.125 -18.167969 C -79.84375 -17.929688 -81.039062 -16.734375 -82.234375 -15.539062 C -83.191406 -14.582031 -84.386719 -13.625 -84.386719 -13.625 C -85.101562 -13.625 -93.949219 -4.0625 -94.90625 -2.390625 C -97.054688 0.957031 -96.101562 3.824219 -92.753906 4.542969 Z M -92.992188 2.628906 C -95.621094 1.914062 -94.1875 -1.433594 -88.449219 -7.171875 L -84.386719 -11.234375 L -82.234375 -13.148438 C -80.082031 -15.300781 -80.082031 -15.300781 -76.019531 -18.40625 C -72.433594 -21.515625 -70.519531 -22.949219 -70.28125 -22.949219 C -70.042969 -22.949219 -69.324219 -23.425781 -68.609375 -23.90625 C -67.414062 -25.101562 -57.613281 -30.839844 -56.894531 -30.839844 C -56.65625 -30.839844 -56.417969 -31.078125 -56.417969 -31.078125 C -56.175781 -31.792969 -40.878906 -39.683594 -39.921875 -39.683594 C -39.683594 -39.683594 -39.203125 -39.921875 -38.964844 -40.160156 C -38.726562 -40.398438 -34.664062 -41.835938 -33.945312 -41.835938 C -33.707031 -41.835938 -34.183594 -41.355469 -34.902344 -40.398438 L -35.617188 -39.683594 L -36.097656 -39.445312 L -36.574219 -38.964844 L -37.054688 -38.007812 L -37.53125 -37.769531 L -38.25 -37.054688 L -39.203125 -36.335938 L -39.203125 -36.097656 L -40.398438 -34.902344 L -42.3125 -33.226562 L -44.464844 -31.078125 C -49.246094 -26.296875 -52.113281 -23.425781 -54.503906 -21.277344 L -62.394531 -14.34375 L -71.476562 -6.933594 L -73.628906 -5.257812 L -76.257812 -3.824219 C -78.171875 -2.390625 -82.953125 0.238281 -84.625 0.71875 L -87.253906 1.671875 C -88.929688 2.390625 -91.796875 2.867188 -92.992188 2.628906 Z M -92.992188 2.628906 "/></g></g></g><g fill="#000000" fill-opacity="1"><g transform="translate(115.985242, 134.694909)"><g><path d="M -2.867188 -65.023438 C 0.476562 -65.023438 5.5 -68.609375 6.695312 -70.519531 L 7.410156 -70.761719 C 9.800781 -70.28125 12.667969 -70.042969 15.777344 -70.042969 C 19.125 -70.042969 26.773438 -71 31.792969 -73.152344 L 33.945312 -74.105469 C 34.421875 -74.347656 34.664062 -74.824219 34.421875 -75.300781 C 34.183594 -75.78125 33.46875 -75.78125 33.226562 -75.542969 C 28.6875 -73.628906 23.425781 -71.714844 15.300781 -71.714844 C 13.386719 -71.714844 11.472656 -71.957031 10.039062 -72.433594 C 9.5625 -72.671875 9.085938 -72.910156 8.128906 -73.152344 L 8.128906 -75.300781 C 8.128906 -75.542969 8.128906 -76.019531 7.890625 -76.257812 C 7.648438 -76.734375 6.933594 -77.214844 6.214844 -77.214844 L 3.109375 -77.453125 L 2.628906 -77.691406 L 0.71875 -76.976562 L -3.347656 -72.910156 C -4.0625 -72.195312 -6.695312 -67.652344 -5.5 -65.738281 C -4.78125 -64.785156 -4.78125 -64.785156 -2.867188 -65.023438 Z M 4.78125 -74.347656 C 4.304688 -74.585938 4.0625 -74.824219 4.542969 -74.824219 C 4.78125 -74.824219 5.019531 -74.585938 5.257812 -74.585938 C 5.257812 -74.347656 5.257812 -74.105469 4.78125 -74.347656 Z M -2.152344 -67.175781 C -2.390625 -67.175781 -3.347656 -68.371094 -1.195312 -71.238281 C 0.238281 -73.152344 0.957031 -73.390625 1.671875 -73.390625 L 2.628906 -72.671875 L 4.0625 -71.957031 C 4.304688 -71.714844 5.257812 -71.476562 2.152344 -68.847656 C 0 -66.933594 -1.914062 -67.175781 -2.152344 -67.175781 Z M -2.152344 -67.175781 "/></g></g></g><g fill="#000000" fill-opacity="1"><g transform="translate(149.44896, 134.694909)"><g><path d="M -6.453125 -64.304688 C -5.976562 -65.023438 -4.542969 -65.980469 -3.585938 -66.695312 L -0.957031 -68.609375 C 0 -69.566406 1.433594 -70.28125 6.453125 -72.671875 L 9.085938 -74.105469 C 10.28125 -74.585938 10.519531 -74.585938 11.472656 -73.867188 C 12.910156 -73.152344 14.820312 -73.390625 18.167969 -74.585938 L 21.992188 -76.496094 L 24.621094 -77.691406 C 25.101562 -77.929688 26.296875 -78.171875 26.773438 -78.171875 C 27.492188 -78.171875 27.96875 -78.410156 28.6875 -78.886719 C 30.121094 -80.320312 30.359375 -81.039062 29.882812 -81.757812 C 29.402344 -82.710938 28.6875 -82.710938 26.773438 -81.277344 C 25.816406 -80.800781 25.101562 -80.320312 24.863281 -80.320312 C 24.621094 -80.320312 23.90625 -80.082031 23.1875 -79.605469 C 21.035156 -78.171875 16.253906 -76.019531 14.820312 -76.019531 C 14.34375 -76.019531 14.105469 -76.257812 13.863281 -76.976562 C 13.625 -78.410156 12.910156 -78.648438 11.472656 -77.929688 C 10.996094 -77.453125 5.976562 -75.300781 4.78125 -74.585938 L 2.628906 -73.628906 C 1.914062 -73.152344 2.628906 -74.105469 4.542969 -75.78125 C 6.933594 -77.929688 7.410156 -79.367188 5.976562 -79.84375 C 5.257812 -80.082031 4.78125 -80.082031 3.824219 -79.367188 C 1.671875 -78.171875 -3.824219 -72.671875 -5.738281 -70.28125 L -7.890625 -67.652344 C -8.605469 -66.695312 -9.324219 -65.738281 -9.5625 -65.261719 C -9.800781 -63.347656 -7.648438 -62.871094 -6.453125 -64.304688 Z M -6.453125 -64.304688 "/></g></g></g><g fill="#000000" fill-opacity="1"><g transform="translate(186.73712, 134.694909)"><g><path d="M 107.8125 -113.3125 C 106.617188 -113.789062 104.707031 -114.027344 99.207031 -114.507812 C 94.1875 -114.984375 57.132812 -116.417969 52.59375 -116.417969 L 45.898438 -116.660156 L 41.355469 -116.660156 C 42.074219 -117.613281 44.226562 -120.003906 45.660156 -121.199219 C 46.617188 -121.917969 47.570312 -122.875 48.527344 -124.070312 C 49.484375 -125.265625 52.832031 -128.371094 54.503906 -129.804688 L 56.894531 -131.71875 L 57.851562 -132.914062 C 58.566406 -133.632812 58.566406 -133.871094 58.089844 -134.585938 C 57.851562 -135.066406 57.371094 -135.304688 57.132812 -135.304688 C 56.65625 -135.304688 53.789062 -133.152344 53.546875 -132.4375 L 51.398438 -130.523438 C 48.765625 -128.371094 48.289062 -128.132812 47.8125 -127.414062 C 47.332031 -126.9375 41.117188 -120.960938 40.160156 -120.242188 L 39.445312 -119.527344 L 37.53125 -117.375 L 36.574219 -116.417969 L 2.867188 -115.703125 L -2.390625 -115.222656 C -6.453125 -114.984375 -17.929688 -114.027344 -19.839844 -113.550781 C -21.753906 -113.074219 -22.710938 -112.117188 -21.992188 -111.398438 C -21.753906 -110.921875 -16.972656 -111.398438 -13.625 -112.117188 C -12.910156 -112.355469 -7.171875 -113.074219 -1.433594 -113.3125 L 4.542969 -113.789062 L 10.996094 -114.027344 L 18.886719 -114.507812 C 21.035156 -114.746094 29.164062 -114.746094 34.421875 -114.746094 C 34.183594 -114.269531 33.707031 -114.027344 33.46875 -113.550781 L 32.75 -113.074219 L 32.035156 -112.117188 L 29.164062 -109.007812 C 25.816406 -105.421875 15.300781 -93.949219 13.148438 -90.839844 C 13.148438 -90.839844 9.324219 -86.296875 9.324219 -86.539062 C 9.324219 -86.296875 8.367188 -85.34375 7.410156 -84.386719 C 6.214844 -83.191406 4.304688 -81.039062 -0.71875 -75.0625 L -2.628906 -72.910156 L -4.542969 -70.519531 C -5.019531 -69.804688 -5.257812 -69.324219 -5.5 -69.324219 C -5.976562 -69.324219 -7.171875 -67.890625 -10.996094 -62.871094 C -12.429688 -61.199219 -13.625 -59.761719 -14.105469 -59.523438 C -14.34375 -59.046875 -16.734375 -56.175781 -19.363281 -53.070312 L -25.339844 -45.660156 L -35.140625 -32.511719 C -37.53125 -29.164062 -38.964844 -27.253906 -39.445312 -27.492188 L -39.445312 -27.011719 C -39.445312 -26.773438 -39.445312 -26.296875 -39.683594 -25.816406 C -39.921875 -25.101562 -40.160156 -24.863281 -40.398438 -25.101562 C -40.398438 -24.863281 -40.640625 -24.621094 -40.640625 -24.621094 C -40.640625 -24.144531 -40.640625 -23.90625 -40.878906 -23.90625 C -40.878906 -24.144531 -41.59375 -22.710938 -42.074219 -21.035156 C -43.03125 -18.644531 -43.269531 -17.691406 -43.03125 -16.496094 C -42.550781 -15.058594 -42.3125 -14.820312 -41.59375 -14.582031 C -40.640625 -14.582031 -40.160156 -14.582031 -39.921875 -15.058594 C -39.445312 -15.777344 -39.445312 -15.777344 -40.398438 -16.015625 C -41.355469 -16.015625 -41.355469 -16.253906 -41.355469 -17.210938 C -41.117188 -18.40625 -39.203125 -22.472656 -37.53125 -25.101562 C -32.988281 -31.792969 -21.035156 -47.09375 -13.386719 -55.9375 L -9.5625 -60.480469 L -1.671875 -69.566406 L 4.78125 -76.734375 L 6.933594 -79.367188 L 9.800781 -82.472656 C 11.953125 -84.863281 13.863281 -87.253906 17.929688 -92.035156 C 19.363281 -93.710938 21.035156 -95.382812 21.753906 -96.101562 C 22.472656 -96.816406 23.667969 -98.25 24.382812 -99.207031 L 28.449219 -103.511719 C 31.078125 -106.378906 32.75 -107.8125 34.183594 -109.726562 L 36.335938 -111.878906 C 37.054688 -112.832031 37.769531 -113.3125 38.25 -114.027344 L 39.445312 -114.746094 C 41.355469 -114.984375 42.789062 -114.746094 43.507812 -114.746094 L 44.464844 -114.746094 C 58.328125 -114.507812 91.558594 -113.550781 96.339844 -112.832031 C 97.773438 -112.355469 100.164062 -112.355469 101.359375 -112.117188 C 103.75 -112.117188 103.75 -112.117188 103.269531 -111.160156 C 102.792969 -110.683594 103.03125 -110.203125 103.269531 -109.964844 C 103.75 -109.488281 103.988281 -109.246094 104.226562 -109.488281 L 106.617188 -110.441406 C 109.246094 -111.636719 109.488281 -112.355469 107.8125 -113.3125 Z M 107.8125 -113.3125 "/></g></g></g><g fill="#000000" fill-opacity="1"><g transform="translate(207.054381, 134.694909)"><g><path d="M -2.390625 -65.261719 C 0.238281 -65.738281 1.914062 -66.21875 6.214844 -68.371094 L 16.972656 -73.152344 L 20.082031 -74.585938 C 20.320312 -74.824219 20.320312 -75.542969 19.839844 -75.78125 L 19.601562 -76.019531 L 18.886719 -76.019531 L 18.40625 -75.78125 C 5.257812 -70.042969 -2.628906 -67.175781 -4.0625 -67.652344 C -4.542969 -67.890625 -4.542969 -68.128906 -3.824219 -68.847656 C -3.347656 -69.804688 -2.867188 -70.042969 -1.195312 -70.519531 C 1.433594 -71.238281 3.824219 -72.433594 7.890625 -75.300781 C 11.714844 -77.929688 13.386719 -79.367188 13.148438 -80.082031 C 12.667969 -81.515625 10.519531 -81.277344 6.695312 -79.84375 C 1.914062 -78.171875 -3.585938 -73.867188 -5.976562 -70.042969 C -7.171875 -68.128906 -7.410156 -67.414062 -6.933594 -66.457031 C -6.695312 -64.785156 -6.214844 -64.785156 -2.390625 -65.261719 Z M -0.476562 -73.152344 C -0.238281 -73.867188 3.824219 -76.734375 5.5 -77.214844 C 6.933594 -77.929688 9.324219 -78.886719 9.324219 -78.410156 C 9.085938 -78.171875 5.5 -75.78125 3.347656 -74.585938 C 0.71875 -73.152344 -0.957031 -72.671875 -0.476562 -73.152344 Z M -0.476562 -73.152344 "/></g></g></g><g fill="#000000" fill-opacity="1"><g transform="translate(226.176524, 134.694909)"><g><path d="M -79.84375 5.976562 C -77.453125 5.738281 -72.910156 4.0625 -69.324219 2.152344 L -65.980469 0.238281 L -63.589844 -1.195312 L -58.089844 -5.019531 L -48.050781 -12.667969 L -36.8125 -21.753906 C -31.792969 -25.816406 -23.1875 -34.183594 -19.363281 -38.726562 C -17.449219 -41.117188 -15.300781 -43.03125 -15.058594 -43.269531 C -14.34375 -44.226562 -8.605469 -46.855469 -4.0625 -48.289062 C -3.109375 -48.527344 -2.390625 -49.007812 -2.152344 -49.246094 C -1.914062 -49.484375 -1.671875 -49.484375 -1.433594 -49.484375 C -1.195312 -49.246094 -0.71875 -49.484375 -0.238281 -49.722656 C 0 -49.960938 0.957031 -50.203125 1.433594 -50.441406 C 2.152344 -50.441406 2.867188 -50.679688 3.109375 -50.917969 C 3.347656 -50.917969 4.304688 -51.398438 5.738281 -51.636719 L 27.730469 -57.371094 C 28.6875 -57.613281 30.839844 -58.089844 32.75 -58.328125 C 35.617188 -58.808594 35.859375 -58.808594 35.378906 -58.089844 C 34.664062 -57.371094 34.902344 -56.894531 35.859375 -56.65625 C 36.574219 -56.417969 37.054688 -56.417969 38.488281 -57.132812 L 40.640625 -58.089844 C 40.878906 -58.089844 41.117188 -58.328125 41.59375 -58.808594 C 42.074219 -59.523438 41.59375 -60.480469 40.640625 -60.71875 C 39.445312 -60.957031 35.859375 -60.480469 33.226562 -60.003906 L 27.96875 -58.808594 L 14.582031 -55.460938 C 9.800781 -54.265625 5.738281 -53.070312 -0.71875 -50.917969 L -6.214844 -49.007812 L -9.324219 -48.289062 L -11.953125 -47.332031 C -12.910156 -46.855469 1.433594 -62.871094 3.109375 -65.023438 L 6.214844 -69.085938 L 8.84375 -73.152344 C 9.5625 -74.105469 10.039062 -75.0625 10.039062 -75.300781 C 10.039062 -75.542969 9.800781 -76.019531 9.800781 -76.734375 C 9.800781 -78.648438 7.648438 -79.367188 4.542969 -78.410156 C 2.867188 -77.929688 -0.71875 -76.019531 -2.152344 -75.0625 L -4.304688 -73.390625 C -4.542969 -73.152344 -5.019531 -73.152344 -5.5 -72.910156 L -6.453125 -71.957031 C -7.410156 -71.238281 -7.410156 -69.566406 -6.695312 -68.847656 C -6.214844 -68.371094 -2.867188 -68.128906 -2.152344 -68.609375 L 3.585938 -71 C 4.78125 -71.476562 -9.800781 -54.742188 -13.863281 -49.484375 C -17.210938 -44.941406 -19.125 -43.984375 -20.796875 -43.507812 C -21.753906 -43.269531 -23.1875 -42.789062 -23.667969 -42.3125 C -24.382812 -42.074219 -25.101562 -41.59375 -25.339844 -41.59375 C -25.816406 -41.835938 -38.964844 -35.378906 -42.3125 -33.707031 C -43.746094 -32.75 -44.941406 -32.273438 -45.179688 -32.273438 C -45.421875 -32.273438 -45.660156 -32.035156 -45.660156 -32.035156 C -45.660156 -31.792969 -46.375 -31.316406 -47.09375 -31.078125 C -47.8125 -30.839844 -49.722656 -29.644531 -51.398438 -28.449219 L -54.980469 -26.296875 C -56.175781 -25.578125 -60.71875 -22.472656 -63.828125 -19.839844 C -68.609375 -16.253906 -78.410156 -5.738281 -78.648438 -4.304688 C -78.648438 -4.0625 -78.886719 -3.585938 -79.125 -3.347656 L -79.367188 -3.347656 C -79.84375 -2.628906 -80.320312 -1.914062 -80.800781 -1.433594 C -81.039062 -0.238281 -81.515625 0.71875 -82.234375 1.671875 L -82.472656 3.347656 C -82.710938 5.5 -82.234375 6.214844 -79.84375 5.976562 Z M -3.824219 -70.519531 C -4.542969 -70.519531 -4.542969 -70.519531 -3.824219 -71.238281 C -2.867188 -72.195312 0 -74.105469 2.390625 -75.0625 C 4.304688 -76.019531 6.695312 -76.257812 6.695312 -75.542969 C 6.695312 -74.347656 -1.433594 -70.519531 -3.824219 -70.519531 Z M -80.320312 4.0625 C -80.800781 3.824219 -80.320312 2.152344 -79.367188 0 C -76.257812 -5.5 -73.867188 -8.605469 -69.085938 -13.386719 C -64.785156 -17.449219 -63.828125 -18.167969 -58.566406 -22.230469 C -55.9375 -24.144531 -46.136719 -30.359375 -45.660156 -30.359375 L -43.507812 -31.554688 C -42.550781 -32.273438 -39.445312 -33.945312 -36.574219 -35.378906 C -33.945312 -36.574219 -31.554688 -37.769531 -31.554688 -38.007812 C -31.316406 -38.25 -31.078125 -38.25 -30.597656 -38.25 L -29.644531 -38.488281 C -29.644531 -38.726562 -28.449219 -39.203125 -27.492188 -39.683594 L -24.382812 -40.878906 C -21.992188 -41.835938 -21.753906 -41.835938 -21.753906 -41.355469 C -21.753906 -41.117188 -21.992188 -40.878906 -21.992188 -40.878906 C -22.230469 -40.878906 -22.472656 -40.640625 -22.472656 -40.640625 C -22.472656 -39.445312 -31.078125 -31.078125 -41.59375 -21.515625 L -48.527344 -15.300781 C -49.484375 -14.34375 -50.679688 -13.386719 -51.398438 -12.910156 L -53.308594 -11.472656 C -54.980469 -10.039062 -62.871094 -4.542969 -63.347656 -4.542969 C -63.589844 -4.542969 -63.828125 -4.304688 -63.828125 -4.0625 C -64.066406 -3.824219 -64.304688 -3.585938 -64.542969 -3.585938 C -64.785156 -3.585938 -65.980469 -2.867188 -67.414062 -1.914062 C -71.238281 0.71875 -73.867188 1.914062 -76.976562 3.109375 Z M -80.320312 4.0625 "/></g></g></g><g fill="#000000" fill-opacity="1"><g transform="translate(253.664588, 134.694909)"><g><path d="M 5.257812 -65.261719 C 6.214844 -65.023438 7.171875 -65.023438 8.128906 -65.261719 L 8.84375 -65.261719 C 8.84375 -65.261719 13.148438 -66.21875 17.691406 -68.371094 L 31.316406 -74.585938 C 31.792969 -74.824219 31.792969 -75.542969 31.316406 -75.78125 L 31.078125 -76.019531 L 30.359375 -76.019531 L 29.882812 -75.78125 C 19.363281 -71.238281 12.191406 -68.371094 9.085938 -67.652344 C 9.085938 -67.652344 5.976562 -66.695312 5.738281 -67.652344 C 4.78125 -69.804688 6.453125 -72.433594 7.648438 -73.867188 C 8.605469 -75.0625 10.996094 -77.929688 8.128906 -77.929688 C 7.648438 -77.929688 6.933594 -78.171875 6.933594 -78.410156 C 6.695312 -79.367188 5.976562 -79.125 1.914062 -76.976562 C -1.671875 -75.0625 -6.214844 -72.195312 -9.085938 -69.804688 C -10.28125 -68.847656 -10.757812 -68.371094 -10.757812 -67.652344 C -10.757812 -66.457031 -10.039062 -66.21875 -8.605469 -66.21875 C -7.410156 -66.21875 -2.628906 -68.609375 -0.71875 -70.042969 C 1.195312 -71.714844 4.304688 -73.390625 4.304688 -73.152344 L 3.585938 -71.476562 C 3.109375 -70.761719 2.867188 -69.804688 2.867188 -69.085938 C 2.628906 -68.128906 2.628906 -67.414062 3.347656 -66.457031 C 3.824219 -65.738281 4.304688 -65.261719 5.257812 -65.261719 Z M -8.128906 -68.371094 L -6.695312 -69.324219 C -5.257812 -70.761719 -1.433594 -73.390625 1.671875 -74.824219 C 4.0625 -76.257812 4.542969 -76.257812 4.542969 -75.78125 C 4.542969 -75.542969 3.824219 -75.0625 3.109375 -74.824219 C 1.195312 -73.867188 0.238281 -73.152344 -0.238281 -72.671875 C -0.71875 -72.195312 -4.78125 -69.804688 -6.695312 -68.847656 Z M -8.128906 -68.371094 "/></g></g></g></svg>